<svg width="20" height="20" viewBox="0 0 20 20" fill="none" xmlns="http://www.w3.org/2000/svg">
<path fill-rule="evenodd" clip-rule="evenodd" d="M11.2401 17.5816C11.7826 18.1395 12.6619 18.1395 13.2043 17.5816L19.5932 11.0102C19.8537 10.7423 20 10.3789 20 10C20 9.62116 19.8537 9.25784 19.5932 8.98984L13.2043 2.41842C12.6619 1.86053 11.7826 1.86053 11.2401 2.41842C10.6978 2.97631 10.6978 3.88084 11.2401 4.43872L15.258 8.57144H1.38889C0.621777 8.57144 -9.53674e-07 9.2111 -9.53674e-07 10C-9.53674e-07 10.789 0.621777 11.4286 1.38889 11.4286H15.258L11.2401 15.5613C10.6978 16.1192 10.6978 17.0237 11.2401 17.5816Z" fill="black"/>
</svg>
