<svg width="20" height="20" viewBox="0 0 20 20" fill="none" xmlns="http://www.w3.org/2000/svg">
<path fill-rule="evenodd" clip-rule="evenodd" d="M9.5 0C9.90254 0 10.2886 0.146334 10.5733 0.4068L17.5555 6.79569C18.1482 7.33809 18.1482 8.21744 17.5555 8.75986C16.9627 9.3022 16.0017 9.3022 15.4089 8.75986L11.0179 4.74195V18.6111C11.0179 19.3782 10.3382 20 9.5 20C8.66171 20 7.98216 19.3782 7.98216 18.6111V4.74197L3.59115 8.75986C2.99839 9.3022 2.03733 9.3022 1.44458 8.75986C0.851808 8.21744 0.851808 7.33809 1.44458 6.79569L8.42672 0.4068C8.71135 0.146334 9.09746 0 9.5 0Z" fill="black"/>
</svg>
