<svg width="20" height="20" viewBox="0 0 20 20" fill="none" xmlns="http://www.w3.org/2000/svg">
<g clip-path="url(#clip0_23_156)">
<path fill-rule="evenodd" clip-rule="evenodd" d="M10 0C15.5228 0 20 4.47715 20 10C20 15.5228 15.5228 20 10 20C4.47715 20 0 15.5228 0 10C0 4.47715 4.47715 0 10 0ZM13.667 6.12695C13.3228 5.89661 12.8574 5.98889 12.627 6.33301L8.4482 12.5723L6.28125 10.3945C5.98911 10.1009 5.51434 10.0995 5.2207 10.3916C4.92733 10.6838 4.9267 11.1586 5.21875 11.4521L8.0312 14.2793C8.1897 14.4384 8.4112 14.5177 8.6348 14.4961C8.8584 14.4744 9.0605 14.3537 9.1855 14.167L13.873 7.16699C14.1034 6.82283 14.0111 6.35739 13.667 6.12695Z" fill="black"/>
</g>
<defs>
<clipPath id="clip0_23_156">
<rect width="20" height="20" fill="white"/>
</clipPath>
</defs>
</svg>
