<svg width="20" height="20" viewBox="0 0 20 20" fill="none" xmlns="http://www.w3.org/2000/svg">
<g clip-path="url(#clip0_2_12)">
<path fill-rule="evenodd" clip-rule="evenodd" d="M0.532304 0.532537C1.24235 -0.177512 2.39356 -0.177512 3.1036 0.532537L9.99978 7.42872L16.8959 0.532537C17.606 -0.177512 18.7572 -0.177512 19.4673 0.532537C20.1773 1.24259 20.1773 2.39379 19.4673 3.10384L12.5711 10L19.4673 16.8961C20.1773 17.6062 20.1773 18.7575 19.4673 19.4675C18.7572 20.1775 17.606 20.1775 16.8959 19.4675L9.99978 12.5713L3.1036 19.4675C2.39356 20.1775 1.24235 20.1775 0.532304 19.4675C-0.177745 18.7575 -0.177745 17.6062 0.532304 16.8961L7.42848 10L0.532304 3.10384C-0.177745 2.39379 -0.177745 1.24259 0.532304 0.532537Z" fill="black"/>
</g>
<defs>
<clipPath id="clip0_2_12">
<rect width="20" height="20" fill="white"/>
</clipPath>
</defs>
</svg>
