<svg width="20" height="20" viewBox="0 0 20 20" fill="none" xmlns="http://www.w3.org/2000/svg">
<path fill-rule="evenodd" clip-rule="evenodd" d="M6.84947 3.69809C8.29734 1.43397 11.7026 1.43397 13.1505 3.69809L19.4404 13.5337C20.9665 15.9201 19.1915 19 16.2898 19H3.71017C0.808573 19 -0.966507 15.9201 0.559654 13.5337L6.84947 3.69809ZM10.0016 7.53682C10.4108 7.53682 10.7425 7.85759 10.7425 8.25327V12.0743C10.7425 12.47 10.4108 12.7907 10.0016 12.7907C9.59247 12.7907 9.26076 12.47 9.26076 12.0743V8.25327C9.26076 7.85759 9.59247 7.53682 10.0016 7.53682ZM10.9894 14.7012C10.9894 15.2288 10.5472 15.6565 10.0016 15.6565C9.45605 15.6565 9.0138 15.2288 9.0138 14.7012C9.0138 14.1737 9.45605 13.746 10.0016 13.746C10.5472 13.746 10.9894 14.1737 10.9894 14.7012Z" fill="black"/>
</svg>
