<svg width="20" height="20" viewBox="0 0 20 20" fill="none" xmlns="http://www.w3.org/2000/svg">
<g clip-path="url(#clip0_2_122)">
<path fill-rule="evenodd" clip-rule="evenodd" d="M10 0C15.5228 0 20 4.47715 20 10C20 15.5228 15.5228 20 10 20C4.47715 20 0 15.5228 0 10C0 4.47715 4.47715 0 10 0ZM10 12.7998C9.3926 12.7998 8.9006 13.2921 8.9004 13.8994C8.9004 14.5069 9.3925 15 10 15C10.6075 14.9999 11.0996 14.5069 11.0996 13.8994C11.0994 13.2921 10.6073 12.7999 10 12.7998ZM10 5C9.4575 5 9.0271 5.45647 9.0586 5.99805L9.3125 10.3516C9.334 10.7157 9.6352 11 10 11C10.3648 11 10.666 10.7157 10.6875 10.3516L10.9414 5.99805C10.9729 5.45647 10.5425 5 10 5Z" fill="black"/>
</g>
<defs>
<clipPath id="clip0_2_122">
<rect width="20" height="20" fill="white"/>
</clipPath>
</defs>
</svg>
