<svg width="20" height="20" viewBox="0 0 20 20" fill="none" xmlns="http://www.w3.org/2000/svg">
<g clip-path="url(#clip0_2_16)">
<path d="M15.5548 8.89063C15.5548 5.20809 12.5704 2.22234 8.8887 2.22222C5.20689 2.22222 2.22174 5.20802 2.22174 8.89063C2.22186 12.5732 5.20696 15.5582 8.8887 15.5582C12.5704 15.5581 15.5547 12.5731 15.5548 8.89063ZM17.7774 8.89063C17.7774 10.9439 17.0786 12.8326 15.9098 14.3377L19.6746 18.1033C20.1085 18.5373 20.1085 19.2405 19.6746 19.6745C19.2407 20.1085 18.5376 20.1085 18.1037 19.6745L14.3398 15.9097C12.8343 17.0811 10.9438 17.7812 8.8887 17.7813C3.97969 17.7813 0.000117258 13.8007 0 8.89063C0 3.98048 3.97961 0 8.8887 0C13.7977 0.000117287 17.7774 3.98055 17.7774 8.89063Z" fill="black"/>
</g>
<defs>
<clipPath id="clip0_2_16">
<rect width="20" height="20" fill="white"/>
</clipPath>
</defs>
</svg>
