<svg width="20" height="20" viewBox="0 0 20 20" fill="none" xmlns="http://www.w3.org/2000/svg">
<path fill-rule="evenodd" clip-rule="evenodd" d="M6.48213 20C4.559 20 3 18.4737 3 16.5909V3.40908C3 1.5263 4.559 0 6.48213 0H12.5178C14.441 0 16 1.5263 16 3.40908V16.5909C16 18.4737 14.441 20 12.5178 20H6.48213ZM8.33927 2.26363C7.95468 2.26363 7.64285 2.5689 7.64285 2.94547C7.64285 3.32199 7.95468 3.62728 8.33927 3.62728H10.6607C11.0453 3.62728 11.3571 3.32199 11.3571 2.94547C11.3571 2.5689 11.0453 2.26363 10.6607 2.26363H8.33927Z" fill="black"/>
</svg>
