<svg width="20" height="20" viewBox="0 0 20 20" fill="none" xmlns="http://www.w3.org/2000/svg">
<g clip-path="url(#clip0_2_132)">
<path fill-rule="evenodd" clip-rule="evenodd" d="M10.0589 -5.04466e-08C12.6376 0.0152499 15.1111 1.0175 16.9622 2.79688C18.8132 4.57631 19.899 6.99572 19.9931 9.5498C20.0421 10.8574 19.8297 12.1621 19.3674 13.3877C18.9052 14.6131 18.2024 15.7355 17.3002 16.6904C16.3978 17.6455 15.3133 18.4146 14.1097 18.9522C12.906 19.4897 11.6063 19.7859 10.2865 19.8232H10.0008C8.50054 19.8236 7.01879 19.4892 5.66629 18.8457L0.43216 20H0.417379C0.406421 19.9999 0.394818 19.9977 0.384859 19.9932C0.375011 19.9886 0.366374 19.9818 0.359241 19.9736C0.352077 19.9655 0.346618 19.9557 0.34347 19.9453C0.340383 19.935 0.339091 19.9237 0.340514 19.9131L1.22536 14.668C0.392578 13.1578 -0.0291391 11.459 0.00156439 9.7383C0.0323285 8.0174 0.514352 6.33361 1.40075 4.85352C2.28707 3.37355 3.54701 2.14789 5.05635 1.29688C6.56584 0.44588 8.27301 -0.00124005 10.0097 -5.04466e-08H10.0589ZM6.43189 5.13281C6.34017 5.1437 6.25055 5.16865 6.16585 5.20606C6.05296 5.25595 5.95067 5.32747 5.86631 5.41699C5.62796 5.65925 4.96192 6.24251 4.92334 7.4668C4.88482 8.6905 5.7469 9.9014 5.86828 10.0723C5.98898 10.2421 7.5188 12.8874 10.0382 13.96C11.519 14.5922 12.1684 14.7002 12.5893 14.7002C12.7626 14.7002 12.8939 14.6829 13.0307 14.6748C13.4924 14.6464 14.5337 14.1177 14.761 13.543C14.9882 12.968 15.0032 12.4648 14.9432 12.3643C14.8834 12.2637 14.7187 12.1912 14.4713 12.0625C14.2231 11.9334 13.0096 11.2906 12.7815 11.2002C12.697 11.1613 12.6062 11.1377 12.5134 11.1309C12.4528 11.134 12.3931 11.1518 12.3409 11.1826C12.289 11.2134 12.2454 11.2564 12.2139 11.3076C12.0111 11.5579 11.5454 12.1019 11.3892 12.2588C11.3551 12.2977 11.313 12.3287 11.266 12.3506C11.2189 12.3724 11.1673 12.3848 11.1152 12.3857C11.0194 12.3815 10.9253 12.3566 10.8403 12.3125C10.1049 12.003 9.43456 11.5589 8.86367 11.0049C8.33042 10.4839 7.87755 9.8878 7.5207 9.2354C7.3828 8.982 7.52103 8.851 7.64682 8.7324C7.77249 8.6138 7.90735 8.4503 8.03701 8.3086C8.14356 8.1875 8.23265 8.0519 8.30106 7.90625C8.33637 7.83876 8.35353 7.76351 8.35232 7.6875C8.35111 7.6113 8.33083 7.5362 8.29319 7.46973C8.23285 7.34129 7.7867 6.09811 7.57686 5.59864C7.40654 5.17157 7.20352 5.15662 7.02605 5.14356C6.88006 5.13351 6.71252 5.12905 6.54521 5.12403H6.52352L6.43189 5.13281Z" fill="black"/>
</g>
<defs>
<clipPath id="clip0_2_132">
<rect width="20" height="20" fill="white"/>
</clipPath>
</defs>
</svg>
