<svg width="20" height="20" viewBox="0 0 20 20" fill="none" xmlns="http://www.w3.org/2000/svg">
<g clip-path="url(#clip0_2_136)">
<path d="M20.0001 7.50859C20.0001 11.6367 16.6536 14.9832 12.5255 14.9832C11.4958 14.9832 10.5147 14.775 9.62218 14.3984L4.64325 19.3772C3.76755 20.253 2.34776 20.253 1.47206 19.3772L0.656807 18.562C-0.218895 17.6863 -0.218895 16.2665 0.656807 15.3908L5.63569 10.4119C5.25908 9.51935 5.05088 8.53829 5.05088 7.50859C5.05088 3.38048 8.39734 0.0340005 12.5255 0.0340005C13.466 0.0340005 14.3659 0.20772 15.195 0.524822C15.661 0.703066 15.7477 1.29651 15.3949 1.64931L12.0272 5.01706C11.2015 5.84268 11.2015 7.18127 12.0272 8.00689C12.8528 8.83249 14.1913 8.83249 15.017 8.00689L18.3848 4.63914C18.7376 4.28634 19.331 4.373 19.5093 4.839C19.8264 5.66806 20.0001 6.56804 20.0001 7.50859Z" fill="black"/>
</g>
<defs>
<clipPath id="clip0_2_136">
<rect width="20" height="20" fill="white"/>
</clipPath>
</defs>
</svg>
