<svg xmlns="http://www.w3.org/2000/svg" width="512" height="512" viewBox="0 0 512 512"><g><path fill="#ffda44" d="M0 0h256l51.7 254.7L256 512H0z"/><path fill="#eee" d="M256 0h256v512H256z"/><path fill="#acabb1" d="M 354.0,222.8 L 402.1,286.40000000000003 C 401.716321107682,286.97693271034564 401.3506873122524,287.5656645635383 401.0036294242405,288.16534086542606 C 400.6565715362286,288.76501716731383 400.3282575845704,289.3753475831302 400.019164200542,289.99544606291136 C 399.71007081651356,290.61554454269253 399.4203476484423,291.245110864224 399.1504153032582,291.8832310517283 C 398.88048295807414,292.52135123923256 398.6304721241907,293.16771634524065 398.4007457559757,293.8213880062631 C 398.17101938776074,294.4750596672855 397.96168870780434,295.13572140656885 397.7730576128754,295.8024141054212 C 397.58442651794644,296.4691068042735 397.41658633425675,297.1415076817736 397.2697807245582,297.81864057688216 C 397.1229751148596,298.49577347199073 396.9972751554517,299.1773105491397 396.89286333182343,299.8622623837702 C 396.7884515081952,300.5472142184007 396.70537837158963,301.2352491893858 396.64376452381157,301.9253684388196 C 396.5821506760335,302.6154876882534 396.54202594758,303.3073570931922 396.5234485897084,303.9999722290733 C 396.5048712318368,304.6925873649544 396.5078502388209,305.38561290044447 396.53238128587384,306.0780427325629 C 396.5569123329268,306.7704725646813 396.6029835432813,307.46197145181014 396.6705280328478,308.1515355072874 C 396.7380725224143,308.84109956276467 396.82705758936083,309.52839493244534 396.9373540492108,310.21242383214303 C 397.04765050906076,310.8964527318407 397.17920496151,311.57688398726975 397.33182642178235,312.25272977925295 C 397.4844478820547,312.92857557123614 397.6580624580923,313.5995086873597 397.8524181041428,314.2645550974134 C 398.0467737501934,314.9296015074671 398.26177636848945,315.5884392275847 398.4971138279999,316.2401117871023 C 398.73245128751034,316.89178434661994 398.9880096490212,317.5359762366541 399.2634179045162,318.1717522486916 C 399.5388261600112,318.80752826072904 399.8339509699013,319.4345805822392 400.14836388539834,320.05199888715555 C 400.46277680089537,320.6694171920719 400.79632559820766,321.27690255579296 401.1485260463481,321.8735730586727 C 401.5007264944885,322.4702435615525 401.8714080747379,323.0558103240892 402.26003264842217,323.6294232470658 C 402.64865722210646,324.2030361700424 403.0550366356759,324.7644175373418 403.4785809259642,325.3127523610045 C 403.9021252162525,325.86108718466727 404.34262932324253,326.3961099870307 404.79945374308886,326.91704404630224 C 405.2562781629352,327.4379781055738 405.7292017229636,327.9445712102386 406.21753785423977,328.43608791144754 C 406.70587398551595,328.92760461265647 407.2093862588926,329.40380694138133 407.7273436981314,329.8640035687205 C 408.2453011373702,330.3242001960596 408.77745297209407,330.76816831667617 409.32302664845116,331.1952633978271 C 409.86860032480826,331.622358478978 410.4273317019519,332.032373741522 410.9984096390582,332.42471394393255 C 411.5694875761645,332.8170541463431 412.1526355844358,333.1915293361394 412.74700707609276,333.54759586725766 C 413.3413785677497,333.9036623983759 413.94668577636253,334.24114788032324 414.5620499444317,334.5595623670126 C 415.17741411250086,334.8779768537019 415.80253730994036,335.17716618397105 416.4365120112985,335.4566960083458 C 417.0704867126566,335.7362258327205 417.7130059775116,335.995960816144 418.36313702559164,336.23552388717013 C 419.01326807367167,336.47508695819624 419.6706961424197,336.69436213177084 420.3344668076397,336.893031074161 C 420.9982374728598,337.09170001655116 421.66802936834046,337.2696665416964 422.342870120644,337.4266722858825 C 423.0177108729476,337.5836780300686 423.6972737562525,337.7196469785758 424.38057221204497,337.83438173786305 C 425.0638706678374,337.9491164971503 425.7505738754778,338.04256151809994 426.4396849104539,338.11458114147666 C 427.12879594542994,338.1866007648534 427.8199811729275,338.23716012217824 428.5122371616414,338.2661858136737 C 429.2044931503553,338.29521150516916 429.8974847428343,338.3026894779748 430.59020588537476,338.2886088759096 C 431.2829270279152,338.27452827384434 431.97504233786043,338.2388959140666 432.6655470336539,338.181763526017 C 433.3560517294474,338.1246311379674 434.0446115015306,338.0460263824332 434.73022673011536,337.9460633742265 C 435.4158419587001,337.84610036601987 436.0981807014756,337.7248275024788 436.7762523700613,337.58242084203573 C 437.454324038647,337.4400141815927 438.12780034296514,337.2765426707851 438.7957035607209,337.0922436301239 C 439.4636067784766,336.9079445894627 440.12561354267285,336.7029072477849 440.7807627819717,336.47742926898604 C 441.43591202127055,336.2519512901872 442.08388654354536,336.0061418399891 442.72374564882927,335.7403577733817 C 443.36360475411317,335.47457370677427 443.9950386530358,335.1889437037717 444.6171306585557,334.8838824290329 C 445.2392226640756,334.5788211542941 445.85167158880773,334.25447630399066 446.45358830723353,333.9113187472378 C 447.05550502565933,333.5681611904849 447.64659811830893,333.2063570678635 448.2260094630903,332.82643163015797 C 448.80542080787166,332.44650619245243 449.37286988134736,332.0486433815044 449.92753288673794,331.6334207964634 C 450.4821958921285,331.21819821142236 451.0238042879664,330.7858168833313 451.5515717917937,330.3369045237543 C 452.079339295621,329.8879921641773 452.59301038749385,329.4227661151452 453.0918393430627,328.9419017706953 C 453.59066829863156,328.46103742624547 454.07441360862225,327.9647675980413 454.5423729935757,327.4538127480682 C 455.0103323785292,326.94285789809504 455.46227927475036,326.41746540640906 455.8975575662721,325.87839801395523 C 456.33283585779384,325.3393306215014 456.7512348035535,324.78684931909277 457.15214699097396,324.2217561739788 C 457.55305917839445,323.65666302886484 457.9362905048475,323.0792316322913 458.3012846125077,322.4903002729204 C 458.6662787201679,321.90136891354956 459.0128588962342,321.3012227239576 459.34052199135596,320.6907329691113 C 459.6681850864777,320.080243214265 459.97677246175596,319.459705464291 460.2658361240618,318.8300205876968 C 460.5548997863677,318.20033571110264 460.8242997848132,317.56180857138077 461.0736450167224,316.9153661532172 C 461.32299024863164,316.2689237350536 461.55215999289305,315.6148790151459 461.7608215512857,314.95418150589813 C 461.9694831096783,314.29348399665037 462.15753545819194,313.6264535763977 462.3247055909722,312.95405860959374 C 462.49187572375246,312.2816636427898 462.6380827049656,311.6042296711229 462.7631142779602,310.9227401624497 C 462.8881458509548,310.24125065377655 462.9919414813851,309.5560355529305 463.07435048347133,308.86808962405803 C 463.1567594855576,308.18014369518556 463.21774196077746,307.4898000090118 463.2572093775444,306.7980607751304 C 463.2966767943114,306.10632154124903 463.31461004437796,305.4135216669231 463.31098309306657,304.7206669275287 C 463.3073561417552,304.02781218813436 463.2821707450633,303.3352380310094 463.2354634660054,302.6439499038438 C 463.1887561869475,301.9526617766782 463.1205496389683,301.26299436833085 463.030942841235,300.57594890660573 C 462.9413360435017,299.8889034448806 462.8303723793671,299.2048125645396 462.69821294083664,298.52466939763696 C 462.5660535023062,297.8445262307343 462.4127622746993,297.1686600702686 462.2385617992544,296.49805210801946 C 462.0643613238095,295.82744414577036 461.8693359401184,295.16241905824364 461.6537687771707,294.5039422986418 C 461.438201614223,293.84546553903994 461.2021970393946,293.19385591051685 460.946097673403,292.5500593903214 C 460.68999830741143,291.90626287012594 460.4139281413988,291.27059115393774 460.11828796148734,290.6439670810687 C 459.8226477815759,290.01734300819965 459.50758072269076,289.4000699602465 459.1735441848711,288.7930440661707 C 458.83950764705145,288.18601817209486 458.4866633549143,287.5895333249863 458.11552355176934,287.0044554744411 C 457.7443837486244,286.4193776238959 457.3551281227264,285.8459900368043 456.9483217777049,285.28512513121 C 456.5415154326834,284.7242602256157 456.1173553248378,284.17618954565165 455.6764572305383,283.64170875542607 C 455.2355591362388,283.1072279652005 454.7781365173897,282.58659583491163 454.3048534393633,282.08056819462814 C 453.83157036133684,281.57454055434465 453.3426559653073,281.0833623986017 452.8388200349781,280.60774679752626 C 452.33498410464887,280.1321311964508 451.8164705734334,279.67230842051384 451.2840321957144,279.22894601952675 C 450.75159381799546,278.78558361853965 450.2054883751322,278.3588962475067 449.64650867819086,277.9495033517642 C 449.08752898124953,277.54011045602164 448.5159456616348,277.14821024415374 447.93258851803665,276.7743716590798 C 447.3492313744385,276.40053307400586 446.75438284066274,276.0449371106025 446.1489064907801,275.7081000069309 C 445.5434301408975,275.3712629032593 444.9276191177822,275.0533477398373 444.30236742789464,274.7548160514527 C 443.67711573800705,274.45628436306805 443.04272609850113,274.17728068457717 442.40011948742824,273.9182100608421 C 441.75751287635535,273.65913943710706 441.10700041329756,273.4201272978119 440.44952648268884,273.2015206299196 C 439.7920525520801,272.98291396202734 439.1279354715521,272.78481860449745 438.4581393761042,272.6075221431684 C 437.7883432806563,272.4302256818394 437.1131924537268,272.27381395523196 436.43366704860665,272.1385140347834 C 435.7541416434865,272.0032141143348 435.07057065408344,271.88909150583663 434.3839464576977,271.796311887306 C 433.6973222613119,271.70353226877535 433.0079772887486,271.6321405596943 432.3169122997142,271.582240403302 C 431.62584731067983,271.53234024690977 430.93339688600025,271.5039558024905 430.2405662937364,271.49712827729087 C 429.5477357014725,271.49030075209123 428.8548603772713,271.50503345167454 428.1629462060435,271.54130498777687 C 427.4710320348157,271.5775765238792 426.78041400852084,271.63536933554656 426.09209473502693,271.7145995218012 C 425.40377546153303,271.7938297080558 424.7180881923211,271.8944589094067 424.0360283770101,272.0163410369522 C 423.3539685616991,272.13822316449773 422.6758664212378,272.28129920870384 422.0027063935,272.4453614582712 C 421.32954636576216,272.6094237078385 420.6616543628417,272.7943927316227 420.0,273.0 L 345.0,173.8 L 327.3,187.20000000000002 L 300.6,207.4 L 327.5,242.9 L 354.1,222.8 L 354.0,222.8 M 423.3,295.9 C 423.48641649366965,295.7596639879116 423.67719612893166,295.6252195386808 423.8720565433415,295.49686563614193 C 424.06691695775135,295.36851173360304 424.2657619697976,295.24631173219564 424.4682972799153,295.13044649342027 C 424.670832590033,295.0145812546449 424.87695822844466,294.9051079686385 425.08636911993074,294.80218866079025 C 425.2957800114168,294.699269352942 425.50837279246895,294.60295482338296 425.7238328162054,294.5133876219506 C 425.93929283994186,294.4238204205182 426.157513757052,294.34104475685274 426.3781725907595,294.26518314266093 C 426.598831424467,294.1893215284691 426.82181925937107,294.12041140842507 427.0468060634424,294.0585547726072 C 427.2717928675137,293.9966981367893 427.49866758910065,293.9419255171284 427.7270944434068,293.8943179795664 C 427.955521297713,293.84671044200434 428.18538753510603,293.8062914852333 428.4163529432114,293.77312093112806 C 428.64731835131676,293.7399503770228 428.8792689274927,293.71404459829836 429.1118613744496,293.69544193667275 C 429.34445382140643,293.67683927504714 429.5775733334093,293.6655489126426 429.8108748830909,293.6615875597034 C 430.0441764327725,293.6576262067642 430.27754486439056,293.6609958185818 430.5106347821656,293.6716914079792 C 430.7437246999406,293.6823869973766 430.9764210525902,293.70040328509816 431.2083794390419,293.7257136062272 C 431.4403378254936,293.75102392735624 431.67144375297966,293.7836157889248 431.9013551743284,293.8234409535112 C 432.1312665956771,293.86326611809756 432.35987002848606,293.91030492832533 432.5868271293883,293.9644877646388 C 432.8137842302906,294.0186706009523 433.0389829751121,294.07997071914536 433.2620900595775,294.1482973922848 C 433.48519714404284,294.21662406542424 433.7061024443147,294.2919435680214 433.9244790106087,294.3741444238234 C 434.1428555769027,294.4563452796254 434.3585956203267,294.54538691496015 434.57137983590894,294.64113754420083 C 434.7841640514912,294.7368881734415 434.99388741067816,294.8393005348584 435.2002395134616,294.9482230535485 C 435.40659161624507,295.05714557223854 435.6094706089098,295.17252448493485 435.8085762214181,295.29418902565504 C 436.00768183392637,295.41585356637523 436.20291578937156,295.5437436824941 436.39398913271475,295.6776700908854 C 436.58506247605794,295.8115964992767 436.77188089505523,295.95149309495736 436.9541678900403,296.09715282467096 C 437.1364548850254,296.24281255438456 437.3141204806242,296.39416352167643 437.486901723761,296.55098172030483 C 437.6596829668978,296.70779991893323 437.82749457415997,296.8700079447141 437.990088176818,297.03736572247067 C 438.15268177947604,297.20472350022726 438.30997712265366,297.3771484235252 438.4617414021652,297.55438529571967 C 438.61350568167677,297.7316221679141 438.75966398791167,297.9135835063303 438.90000000000003,298.09999999999997 C 439.0403360120884,298.2864164936696 439.17478046131913,298.4771961289316 439.303134363858,298.67205654334145 C 439.4314882663969,298.8669169577513 439.5536882678043,299.06576196979756 439.6695535065797,299.26829727991526 C 439.78541874535506,299.47083259003296 439.89489203136145,299.6769582284446 439.9978113392097,299.8863691199307 C 440.10073064705796,300.09578001141676 440.197045176617,300.3083727924689 440.28661237804937,300.52383281620536 C 440.37617957948174,300.7392928399418 440.4589552431472,300.95751375705197 440.534816857339,301.17817259075946 C 440.61067847153083,301.39883142446695 440.6795885915749,301.621819259371 440.7414452273928,301.84680606344233 C 440.80330186321066,302.07179286751364 440.85807448287153,302.2986675891006 440.9056820204336,302.5270944434068 C 440.9532895579956,302.75552129771296 440.99370851476664,302.98538753510593 441.0268790688719,303.21635294321135 C 441.06004962297715,303.44731835131677 441.0859554017016,303.67926892749267 441.1045580633272,303.91186137444953 C 441.1231607249528,304.1444538214064 441.1344510873574,304.37757333340926 441.1384124402966,304.61087488309084 C 441.1423737932358,304.84417643277243 441.13900418141816,305.0775448643905 441.12830859202074,305.31063478216555 C 441.11761300262333,305.5437246999406 441.0995967149018,305.77642105259014 441.07428639377275,306.00837943904185 C 441.0489760726437,306.24033782549355 441.01638421107515,306.4714437529796 440.9765590464888,306.70135517432834 C 440.9367338819024,306.9312665956771 440.8896950716746,307.159870028486 440.83551223536114,307.3868271293883 C 440.78132939904765,307.61378423029055 440.7200292808546,307.83898297511206 440.65170260771515,308.06209005957743 C 440.5833759345757,308.2851971440428 440.50805643197856,308.50610244431465 440.42585557617656,308.72447901060866 C 440.34365472037456,308.9428555769027 440.2546130850398,309.15859562032665 440.1588624557991,309.3713798359089 C 440.06311182655844,309.58416405149114 439.96069946514154,309.7938874106781 439.8517769464515,310.00023951346157 C 439.7428544277614,310.206591616245 439.6274755150651,310.40947060890977 439.5058109743449,310.60857622141805 C 439.3841464336247,310.8076818339263 439.25625631750586,311.0029157893715 439.12232990911457,311.1939891327147 C 438.9884035007233,311.3850624760579 438.8485069050426,311.5718808950552 438.702847175329,311.75416789004026 C 438.5571874456154,311.93645488502534 438.4058364783235,312.11412048062414 438.2490182796951,312.28690172376093 C 438.0922000810667,312.45968296689773 437.9299920552859,312.6274945741599 437.7626342775293,312.79008817681796 C 437.5952764997727,312.952681779476 437.4228515764747,313.1099771226536 437.2456147042803,313.26174140216517 C 437.06837783208584,313.4135056816767 436.8864164936696,313.5596639879116 436.7,313.7 C 436.51358350633035,313.84033601208836 436.32280387106834,313.9747804613191 436.1279434566585,314.103134363858 C 435.93308304224865,314.23148826639687 435.7342380302024,314.3536882678043 435.5317027200847,314.46955350657964 C 435.329167409967,314.585418745355 435.12304177155534,314.6948920313614 434.91363088006926,314.79781133920966 C 434.7042199885832,314.9007306470579 434.49162720753105,314.99704517661695 434.2761671837946,315.0866123780493 C 434.06070716005814,315.1761795794817 433.842486242948,315.25895524314717 433.6218274092405,315.334816857339 C 433.401168575533,315.4106784715308 433.17818074062893,315.47958859157484 432.9531939365576,315.5414452273927 C 432.7282071324863,315.6033018632106 432.50133241089935,315.6580744828715 432.2729055565932,315.7056820204335 C 432.044478702287,315.7532895579956 431.81461246489397,315.7937085147666 431.5836470567886,315.82687906887185 C 431.35268164868324,315.8600496229771 431.1207310725073,315.88595540170155 430.8881386255504,315.90455806332716 C 430.65554617859357,315.92316072495277 430.4224266665907,315.93445108735733 430.1891251169091,315.93841244029653 C 429.9558235672275,315.94237379323573 429.72245513560944,315.9390041814181 429.4893652178344,315.9283085920207 C 429.2562753000594,315.9176130026233 429.0235789474098,315.89959671490175 428.7916205609581,315.8742863937727 C 428.5596621745064,315.84897607264367 428.32855624702034,315.8163842110751 428.0986448256716,315.7765590464887 C 427.8687334043229,315.73673388190235 427.64012997151394,315.6896950716746 427.4131728706117,315.6355122353611 C 427.1862157697094,315.5813293990476 426.9610170248879,315.52002928085454 426.7379099404225,315.4517026077151 C 426.51480285595716,315.38337593457567 426.2938975556853,315.3080564319785 426.0755209893913,315.2258555761765 C 425.8571444230973,315.1436547203745 425.6414043796733,315.05461308503976 425.42862016409106,314.9588624557991 C 425.2158359485088,314.8631118265584 425.00611258932184,314.7606994651415 424.7997604865384,314.65177694645143 C 424.59340838375493,314.54285442776137 424.3905293910902,314.42747551506505 424.1914237785819,314.30581097434487 C 423.99231816607363,314.1841464336247 423.79708421062844,314.0562563175058 423.60601086728525,313.9223299091145 C 423.41493752394206,313.78840350072323 423.22811910494477,313.64850690504255 423.0458321099597,313.50284717532895 C 422.8635451149746,313.35718744561535 422.6858795193758,313.2058364783235 422.513098276239,313.0490182796951 C 422.3403170331022,312.8922000810667 422.17250542584,312.72999205528583 422.00991182318194,312.56263427752924 C 421.8473182205239,312.39527649977265 421.69002287734634,312.2228515764747 421.5382585978348,312.04561470428024 C 421.38649431832323,311.8683778320858 421.24033601208833,311.6864164936696 421.09999999999997,311.49999999999994 C 420.9596639879116,311.3135835063303 420.82521953868087,311.1228038710683 420.696865636142,310.92794345665845 C 420.5685117336031,310.7330830422486 420.4463117321957,310.5342380302023 420.3304464934203,310.3317027200846 C 420.21458125464494,310.1291674099669 420.10510796863855,309.92304177155523 420.0021886607903,309.71363088006916 C 419.89926935294204,309.5042199885831 419.802954823383,309.291627207531 419.71338762195063,309.07616718379455 C 419.62382042051826,308.8607071600581 419.5410447568528,308.6424862429479 419.465183142661,308.4218274092404 C 419.38932152846917,308.2011685755329 419.3204114084251,307.9781807406289 419.2585547726072,307.7531939365576 C 419.19669813678934,307.5282071324863 419.14192551712847,307.30133241089925 419.0943179795664,307.07290555659307 C 419.0467104420044,306.8444787022869 419.00629148523336,306.614612464894 418.9731209311281,306.38364705678856 C 418.93995037702285,306.15268164868314 418.9140445982984,305.9207310725072 418.8954419366728,305.6881386255503 C 418.8768392750472,305.45554617859347 418.8655489126426,305.22242666659065 418.8615875597034,304.98912511690907 C 418.8576262067642,304.7558235672275 418.86099581858184,304.5224551356094 418.87169140797926,304.28936521783436 C 418.88238699737667,304.0562753000593 418.9004032850982,303.82357894740977 418.92571360622725,303.59162056095806 C 418.9510239273563,303.35966217450635 418.98361578892485,303.1285562470203 419.0234409535112,302.89864482567157 C 419.0632661180976,302.66873340432284 419.1103049283254,302.4401299715139 419.16448776463886,302.21317287061163 C 419.21867060095235,301.98621576970936 419.2799707191454,301.7610170248878 419.34829739228485,301.5379099404224 C 419.4166240654243,301.31480285595705 419.49194356802144,301.09389755568526 419.57414442382344,300.87552098939125 C 419.65634527962544,300.65714442309724 419.7453869149602,300.44140437967326 419.8411375442009,300.228620164091 C 419.93688817344156,300.01583594850877 420.0393005348585,299.8061125893218 420.1482230535486,299.59976048653834 C 420.25714557223864,299.3934083837549 420.3725244849349,299.1905293910901 420.4941890256551,298.9914237785818 C 420.6158535663753,298.7923181660735 420.7437436824942,298.5970842106284 420.8776700908855,298.4060108672852 C 421.0115964992768,298.214937523942 421.1514930949574,298.0281191049447 421.297152824671,297.84583210995964 C 421.4428125543846,297.66354511497457 421.5941635216765,297.4858795193757 421.7509817203049,297.3130982762389 C 421.9077999189333,297.1403170331021 422.0700079447141,296.9725054258399 422.2373657224707,296.8099118231819 C 422.4047235002273,296.64731822052386 422.5771484235253,296.49002287734623 422.7543852957197,296.3382585978347 C 422.93162216791416,296.1864943183231 423.1135835063304,296.04033601208835 423.3,295.9"/><path fill="#ffda44" d="M 436.6,242.9 L 463.40000000000003,207.4 L 436.8,187.20000000000002 L 419.0,173.8 L 344.0,273.0 C 343.33886522211867,272.7916797400403 342.67140546359326,272.60399159255655 341.9985905912061,272.4372082818551 C 341.32577571881893,272.2704249711536 340.6479317732053,272.12462731907533 339.96604371011415,272.0000271800398 C 339.284155647023,271.8754270410043 338.59855390388435,271.7720847952292 337.910234709082,271.6901506063912 C 337.2219155142796,271.60821641755325 336.5312124217179,271.5477299902964 335.8391290724063,271.5087792157269 C 335.1470457230947,271.46982844115746 334.4539174950164,271.4524321945051 333.7607515530762,271.4566157537609 C 333.067585611136,271.4607993130167 332.3747178579327,271.48656065086163 331.68315507988245,271.53386233422884 C 330.9915923018322,271.58116401759605 330.3016696246537,271.64998312447307 329.6143895553568,271.7402196557739 C 328.9271094860599,271.83045618707473 328.24280507499736,271.94206641490746 327.5624706654365,272.07488816162606 C 326.8821362558756,272.20770990834467 326.2061015323586,272.3616788096069 325.53534882170527,272.53657113758356 C 324.8645961110519,272.71146346556026 324.19945045459076,272.90719446884646 323.54087835654803,273.12347973629085 C 322.8823062585053,273.33976500373524 322.23062685758333,273.57649972524985 321.58678709057574,273.8333399083472 C 320.94294732356815,274.0901800914446 320.30725919000895,274.3670012734532 319.6806463902362,274.6634012133905 C 319.0540335904634,274.9598011533278 318.4367997759624,275.27563621818473 317.82984183162534,275.6104474770157 C 317.2228838872883,275.9452587358467 316.6264959400167,276.2988839418287 316.04154458416633,276.6708092522376 C 315.45659322831597,277.04273456264644 314.88336192657397,277.43277974549034 314.3226836250333,277.84037803721316 C 313.7620053234926,278.247976328936 313.21415172231497,278.6729302107083 312.67991889197884,279.1146221941367 C 312.1456860616427,279.5563141775651 311.6253328870487,280.01453022229356 311.119615478588,280.4886045076262 C 310.6138980701273,280.9626787929588 310.123061494358,281.4523815863384 309.6478189719416,281.9570013145706 C 309.1725764495252,282.46162104280285 308.713158279137,282.98091317125636 308.2702320282475,283.51412313131607 C 307.827305777358,284.0473330913758 307.40108608443927,284.59420249381554 306.9921922771988,285.15393669826824 C 306.5832984699583,285.71367090272093 306.1919286950219,286.2859986665266 305.8186516406727,286.87008835649755 C 305.44537458632357,287.4541780464685 305.0903711395976,288.0497466174737 304.75415714590144,288.6559286657701 C 304.4179431522053,289.26211071406647 304.10068153811596,289.8786124887452 303.802833307457,290.5045381686204 C 303.504985076798,291.1304638484956 303.22669456440855,291.76551011505467 302.96836614631326,292.40875420063827 C 302.71003772821797,293.0519982862219 302.47179658827497,293.7031284799583 302.25398890790547,294.36119864309137 C 302.03618122753596,295.01926880622443 301.83891255457706,295.68396004328537 301.6624695345239,296.35430651035176 C 301.4860265144707,297.02465297741816 301.33049465018115,297.7003298300239 301.1960999405814,298.3803552613612 C 301.06170523098166,299.0603806926985 300.9485128026591,299.7444251679537 300.85668713231024,300.43149472156443 C 300.7648614619614,301.1185642751752 300.69444704756216,301.8083259588032 300.64554620629434,302.49977749937364 C 300.5966453650265,303.19122903994406 300.5692817938416,303.8840353656431 300.56349525396615,304.5771897793131 C 300.5577087140907,305.27034419298303 300.57350200963515,305.9635107976117 300.6108521918111,306.65568237253035 C 300.64820237398703,307.347853947449 300.70709134319884,308.038695071921 300.78743352956104,308.7272019043667 C 300.86777571592324,309.41570873681246 300.96953218626345,310.1015476323998 301.09255508115,310.78372201814557 C 301.21557797603657,311.46589640389135 301.3598076795716,312.1440757036159 301.5250346156769,312.81727447427664 C 301.69026155178216,313.4904732449374 301.87640565282345,314.15836525986504 302.0831964381042,314.819980024178 C 302.28998722338497,315.48159478849095 302.51732448376634,316.1366116890354 302.7648778819443,316.7840789393921 C 303.01243128012226,317.43154618974876 303.28008085372596,318.07115003253455 303.56743768877607,318.7019610776058 C 303.8547945238262,319.33277212267706 304.161719369529,319.95448468411274 304.4877662421248,320.5661953690811 C 304.8138131147206,321.1779060540494 305.1588240145369,321.77931843250906 305.52229761605275,322.36955860924644 C 305.8857712175686,322.9597987859838 306.2675313844219,323.53858073539203 306.6670233917773,324.1050634458899 C 307.06651539913275,324.6715461563878 307.4835456564006,325.22545511504404 307.917508188781,325.7659854525126 C 308.35147072116143,326.3065157899812 308.80215523392746,326.8334055696405 309.2689068502382,327.34588918294463 C 309.7356584665489,327.8583727962488 310.2182510023531,328.3562018977914 310.7159832161694,328.83865310627095 C 311.21371542998565,329.3211043147505 311.7263461248164,329.7879438382208 312.2531304115861,330.2384933254544 C 312.77991469835575,330.68904281268794 313.32059730166765,331.12308393105417 313.87439257101613,331.53998598775473 C 314.4281878403646,331.9568880444553 314.99482741104964,332.35644901213163 315.5734879152351,332.7380883001115 C 316.15214841942054,333.11972758809134 316.7425494429149,333.483260257068 317.34383309079124,333.8281580680649 C 317.9451167386676,334.1730558790618 318.55699163374226,334.4991516973943 319.1785686780165,334.8059716825081 C 319.8001457222908,335.1127916676218 320.43112370456555,335.40018713703824 321.0705857686896,335.66774048457864 C 321.7100478328137,335.93529383211904 322.3576841006524,336.1828754035992 323.0125535103737,336.4101254452827 C 323.667422920095,336.63737548696616 324.3292081272894,336.84418387532423 324.9969475107038,337.0302501029725 C 325.66468689411823,337.21631633062077 326.3380568726581,337.38155023137307 327.01607899156875,337.52571170855003 C 327.6941011104794,337.669873185727 328.37644680573595,337.792892379845 329.0621245802252,337.8945905352135 C 329.74780235471445,337.99628869058205 330.43647993454294,338.07661652509904 331.1271566219161,338.1354573166741 C 331.8178333092892,338.19429810824914 332.51017440788087,338.2316233431113 333.2031738965416,338.247378785024 C 333.89617338520236,338.2631342269367 334.5894954419953,338.2573122409404 335.2821326203687,338.2299212867973 C 335.9747697987421,338.20253033265425 336.66638645233166,338.1535836837988 337.3559776126584,338.0831524632136 C 338.0455687729852,338.0127212426284 338.7328002697605,337.92083958071225 339.4166735064521,337.80764098809357 C 340.10054674314375,337.6944423954749 340.7807303203225,337.5599817272744 341.4562358825874,337.40445436446294 C 342.1317414448523,337.24892700165145 342.80224164768146,337.0724083115287 343.4667622063096,336.8751547883804 C 344.1312827649378,336.67790126523215 344.78950165808686,336.4600084965174 345.4404624466132,336.22179309601796 C 346.09142323513953,335.98357769551853 346.73481046871973,335.7251551004873 347.36968925967255,335.44690081744363 C 348.0045680506254,335.16864653439995 348.6306307418332,334.87069540311467 349.2469676194144,334.5534803678982 C 349.8633044969956,334.23626533268174 350.46961688909346,333.8999401133699 351.065023780424,333.5449934145684 C 351.6604306717545,333.1900467157669 352.24464353296264,332.81665054177 352.816813460964,332.42534746393284 C 353.38898338896536,332.0340443860957 353.9488331148491,331.6250240267191 354.4955491369093,331.1988807216484 C 355.0422651589695,330.7727374165777 355.5755825430519,330.3296776714054 356.0947263408416,329.8703452836399 C 356.6138701386313,329.41101289587436 357.1185887772504,328.9356304542686 357.6081488644073,328.44488872352133 C 358.09770895156424,327.95414699277404 358.5718732504076,327.44828378235144 359.02995276628724,326.92803414769 C 359.4880322821669,326.4077845130286 359.9298050334613,325.8734005628857 360.35462909275657,325.3256587953731 C 360.7794531520518,324.7779170278605 361.187122653051,324.21708287420034 361.5770452228027,323.64397126654256 C 361.96696779255444,323.0708596588848 362.3389544777409,322.48574832247044 362.69246475509505,321.88948746593286 C 363.0459750324492,321.2932266093953 363.38083759375496,320.686105175914 363.6965658597533,320.0690053563681 C 364.0122941257517,319.4519055368222 364.30873509708323,318.82512637278387 364.5854580238079,318.189578619221 C 364.8621809505326,317.5540308656581 365.1190517349625,316.91002250386225 365.35569712547004,316.2584893240583 C 365.5923425159776,315.60695614425435 365.80864783612407,314.94821387414186 366.00429877880396,314.28321971336874 C 366.19994972148385,313.6182255525956 366.3748514758356,312.9473017519436 366.528749897097,312.27142321169606 C 366.68264831835836,311.5955446714485 366.81546882860135,310.9150389168693 366.9270184301221,310.2308947715063 C 367.0385680316428,309.5467506261433 367.12879266840827,308.8592996207057 367.1975612375661,308.16954067068775 C 367.26632980672395,307.4797817206698 367.31360898358287,306.7880490776695 367.3393300681162,306.09534787870683 C 367.3650511526496,305.4026466797442 367.36920168062835,304.70931260220715 367.3517756210383,304.01635311011466 C 367.3343495614483,303.3233936180222 367.2953553588167,302.63114451392903 367.23484967451,301.9406116853101 C 367.1743439902032,301.2500788566912 367.0923561447855,300.5615969301598 366.9890052724621,299.87616631921225 C 366.8856544001387,299.1907357082647 366.76099058390486,298.5086885670211 366.61519496920454,297.8310159587743 C 366.4693993545042,297.15334335052745 366.30254259271095,296.4803736699322 366.11486713863724,295.8130847900817 C 365.9271916845635,295.1457959102312 365.71878848421375,294.48451119390955 365.4899603623481,293.8301915351209 C 365.2611322404824,293.1758718763322 365.0119900853545,292.5288343530812 364.74289591834054,291.89001915718103 C 364.47380175132656,291.25120396128085 364.1848859732794,290.6209206573992 363.8765683994948,290.00008509226984 C 363.56825082571015,289.3792495271405 363.2406808643861,288.7681625526477 362.89433449811224,288.16771212188524 C 362.5479881318384,287.5672616911228 362.1830331972577,286.9777387775045 361.8,286.4 L 409.8,222.79999999999998 L 436.6,242.79999999999998 L 436.6,242.9 M 342.8,311.5 C 342.65966398791164,311.68641649366964 342.51350568167675,311.86837783208586 342.3617414021652,312.0456147042803 C 342.20997712265364,312.22285157647474 342.052681779476,312.3952764997727 341.890088176818,312.5626342775293 C 341.72749457415995,312.7299920552859 341.55968296689775,312.8922000810668 341.38690172376096,313.0490182796952 C 341.21412048062416,313.2058364783236 341.03645488502536,313.35718744561547 340.8541678900403,313.50284717532907 C 340.6718808950552,313.64850690504267 340.4850624760579,313.7884035007233 340.2939891327147,313.9223299091146 C 340.10291578937154,314.05625631750587 339.90768183392635,314.18414643362473 339.70857622141807,314.3058109743449 C 339.5094706089098,314.4274755150651 339.30659161624504,314.5428544277614 339.1002395134616,314.6517769464515 C 338.89388741067813,314.76069946514156 338.6841640514911,314.86311182655845 338.47137983590886,314.95886245579914 C 338.2585956203266,315.0546130850398 338.04285557690264,315.14365472037457 337.8244790106086,315.22585557617657 C 337.6061024443146,315.30805643197857 337.3851971440428,315.3833759345757 337.16209005957745,315.45170260771516 C 336.9389829751121,315.5200292808546 336.71378423029057,315.58132939904766 336.4868271293883,315.63551223536115 C 336.25987002848603,315.68969507167463 336.03126659567704,315.7367338819024 335.8013551743283,315.7765590464888 C 335.5714437529796,315.81638421107516 335.3403378254936,315.8489760726437 335.10837943904187,315.87428639377276 C 334.87642105259016,315.8995967149018 334.64372469994055,315.91761300262334 334.4106347821655,315.92830859202076 C 334.1775448643905,315.93900418141817 333.94417643277245,315.9423737932358 333.71087488309087,315.9384124402966 C 333.4775733334093,315.9344510873574 333.2444538214064,315.9231607249528 333.01186137444955,315.9045580633272 C 332.7792689274927,315.8859554017016 332.54731835131673,315.86004962297716 332.31635294321137,315.8268790688719 C 332.085387535106,315.79370851476665 331.855521297713,315.75328955799563 331.6270944434068,315.7056820204336 C 331.3986675891006,315.65807448287154 331.17179286751366,315.6033018632107 330.94680606344235,315.5414452273928 C 330.72181925937105,315.4795885915749 330.49883142446697,315.41067847153084 330.2781725907595,315.33481685733904 C 330.057513757052,315.2589552431472 329.83929283994183,315.17617957948175 329.6238328162054,315.0866123780494 C 329.4083727924689,314.997045176617 329.1957800114168,314.90073064705797 328.9863691199307,314.7978113392097 C 328.77695822844464,314.69489203136146 328.570832590033,314.58541874535507 328.3682972799153,314.4695535065797 C 328.1657619697976,314.35368826780433 327.96691695775127,314.2314882663969 327.7720565433414,314.10313436385803 C 327.5771961289316,313.97478046131914 327.3864164936696,313.84033601208836 327.2,313.7 C 327.01358350633035,313.5596639879116 326.83162216791413,313.4135056816768 326.6543852957197,313.2617414021652 C 326.47714842352525,313.1099771226537 326.3047235002273,312.95268177947605 326.1373657224707,312.790088176818 C 325.9700079447141,312.62749457416 325.8077999189332,312.4596829668978 325.6509817203048,312.286901723761 C 325.4941635216764,312.1141204806242 325.3428125543845,311.9364548850254 325.1971528246709,311.7541678900403 C 325.0514930949573,311.57188089505524 324.9115964992767,311.3850624760579 324.7776700908854,311.1939891327147 C 324.6437436824941,311.0029157893715 324.51585356637526,310.8076818339264 324.39418902565507,310.6085762214181 C 324.2725244849349,310.4094706089098 324.15714557223856,310.206591616245 324.0482230535485,310.00023951346157 C 323.93930053485843,309.7938874106781 323.8368881734415,309.58416405149114 323.7411375442008,309.3713798359089 C 323.6453869149601,309.15859562032665 323.5563452796254,308.9428555769027 323.4741444238234,308.72447901060866 C 323.3919435680214,308.50610244431465 323.31662406542426,308.28519714404285 323.2482973922848,308.0620900595775 C 323.1799707191454,307.8389829751121 323.1186706009523,307.61378423029055 323.06448776463884,307.3868271293883 C 323.01030492832535,307.159870028486 322.9632661180976,306.9312665956771 322.9234409535112,306.70135517432834 C 322.8836157889248,306.4714437529796 322.85102392735627,306.24033782549355 322.8257136062272,306.00837943904185 C 322.8004032850982,305.77642105259014 322.78238699737665,305.5437246999406 322.77169140797923,305.31063478216555 C 322.7609958185818,305.0775448643905 322.7576262067642,304.84417643277243 322.7615875597034,304.61087488309084 C 322.7655489126426,304.37757333340926 322.77683927504717,304.14445382140644 322.7954419366728,303.9118613744496 C 322.8140445982984,303.6792689274927 322.83995037702283,303.4473183513167 322.8731209311281,303.21635294321135 C 322.90629148523334,302.985387535106 322.94671044200436,302.75552129771296 322.9943179795664,302.5270944434068 C 323.04192551712845,302.2986675891006 323.0966981367893,302.07179286751364 323.1585547726072,301.84680606344233 C 323.2204114084251,301.621819259371 323.28932152846915,301.398831424467 323.36518314266095,301.1781725907595 C 323.44104475685276,300.957513757052 323.5238204205183,300.7392928399418 323.61338762195066,300.52383281620536 C 323.70295482338304,300.3083727924689 323.7992693529421,300.0957800114168 323.90218866079033,299.88636911993075 C 324.0051079686386,299.6769582284447 324.1145812546449,299.470832590033 324.2304464934203,299.2682972799153 C 324.34631173219566,299.0657619697976 324.46851173360307,298.8669169577513 324.59686563614196,298.67205654334145 C 324.72521953868085,298.4771961289316 324.85966398791163,298.28641649366966 325.0,298.1 C 325.14033601208837,297.9135835063304 325.2864943183232,297.73162216791417 325.43825859783476,297.5543852957197 C 325.5900228773463,297.3771484235253 325.74731822052394,297.2047235002273 325.909911823182,297.0373657224707 C 326.07250542584,296.87000794471413 326.2403170331022,296.70779991893323 326.413098276239,296.55098172030483 C 326.5858795193758,296.39416352167643 326.7635451149746,296.24281255438456 326.94583210995967,296.09715282467096 C 327.12811910494474,295.95149309495736 327.31493752394204,295.81159649927673 327.5060108672852,295.67767009088544 C 327.6970842106284,295.54374368249415 327.8923181660736,295.4158535663753 328.0914237785819,295.2941890256551 C 328.29052939109016,295.1725244849349 328.4934083837549,295.0571455722386 328.69976048653837,294.94822305354853 C 328.9061125893218,294.83930053485847 329.11583594850885,294.73688817344157 329.3286201640911,294.6411375442009 C 329.54140437967334,294.5453869149602 329.7571444230973,294.45634527962545 329.9755209893913,294.37414442382345 C 330.19389755568534,294.29194356802145 330.41480285595713,294.2166240654243 330.6379099404225,294.14829739228486 C 330.8610170248879,294.0799707191454 331.0862157697094,294.01867060095236 331.31317287061165,293.9644877646389 C 331.5401299715139,293.9103049283254 331.7687334043229,293.8632661180976 331.99864482567165,293.82344095351124 C 332.2285562470204,293.78361578892486 332.4596621745064,293.7510239273563 332.6916205609581,293.72571360622726 C 332.9235789474098,293.7004032850982 333.1562753000594,293.6823869973767 333.38936521783444,293.67169140797927 C 333.62245513560947,293.66099581858185 333.8558235672275,293.65762620676423 334.0891251169091,293.66158755970343 C 334.3224266665907,293.66554891264263 334.55554617859354,293.6768392750472 334.7881386255504,293.6954419366728 C 335.02073107250726,293.7140445982984 335.2526816486832,293.73995037702286 335.4836470567886,293.7731209311281 C 335.71461246489395,293.8062914852334 335.944478702287,293.8467104420044 336.17290555659315,293.89431797956644 C 336.40133241089933,293.9419255171285 336.62820713248635,293.99669813678935 336.85319393655766,294.05855477260724 C 337.07818074062897,294.1204114084251 337.301168575533,294.1893215284692 337.5218274092405,294.265183142661 C 337.74248624294796,294.3410447568528 337.9607071600581,294.4238204205183 338.1761671837946,294.5133876219507 C 338.39162720753103,294.6029548233831 338.60421998858317,294.69926935294205 338.81363088006924,294.8021886607903 C 339.0230417715553,294.90510796863856 339.229167409967,295.01458125464495 339.4317027200847,295.1304464934203 C 339.63423803020237,295.2463117321957 339.8330830422487,295.3685117336031 340.02794345665853,295.496865636142 C 340.2228038710684,295.6252195386809 340.4135835063303,295.75966398791167 340.59999999999997,295.90000000000003 C 340.7864164936696,296.0403360120884 340.9683778320858,296.18649431832324 341.14561470428026,296.3382585978348 C 341.3228515764747,296.49002287734635 341.4952764997727,296.64731822052397 341.66263427752926,296.809911823182 C 341.82999205528586,296.97250542584004 341.99220008106676,297.14031703310224 342.14901827969516,297.31309827623903 C 342.30583647832356,297.4858795193758 342.45718744561543,297.6635451149746 342.60284717532903,297.8458321099597 C 342.74850690504263,298.0281191049448 342.88840350072326,298.2149375239421 343.02232990911455,298.4060108672853 C 343.15625631750584,298.5970842106285 343.2841464336247,298.79231816607364 343.4058109743449,298.9914237785819 C 343.5274755150651,299.1905293910902 343.6428544277614,299.393408383755 343.75177694645146,299.59976048653846 C 343.8606994651415,299.8061125893219 343.9631118265585,300.0158359485089 344.05886245579916,300.2286201640911 C 344.15461308503984,300.4414043796734 344.24365472037454,300.65714442309735 344.32585557617654,300.87552098939136 C 344.40805643197854,301.0938975556854 344.4833759345757,301.31480285595717 344.55170260771513,301.53790994042254 C 344.62002928085457,301.7610170248879 344.6813293990476,301.9862157697094 344.7355122353611,302.2131728706117 C 344.7896950716746,302.44012997151395 344.8367338819024,302.66873340432295 344.87655904648875,302.8986448256717 C 344.9163842110751,303.1285562470204 344.9489760726437,303.3596621745064 344.97428639377273,303.5916205609581 C 344.99959671490177,303.8235789474098 345.0176130026233,304.05627530005944 345.0283085920207,304.2893652178345 C 345.03900418141814,304.5224551356095 345.04237379323575,304.7558235672276 345.03841244029655,304.9891251169092 C 345.03445108735735,305.22242666659076 345.0231607249528,305.4555461785936 345.0045580633272,305.68813862555044 C 344.9859554017016,305.9207310725073 344.9600496229771,306.15268164868326 344.92687906887187,306.3836470567886 C 344.8937085147666,306.614612464894 344.8532895579956,306.844478702287 344.80568202043355,307.0729055565932 C 344.7580744828715,307.30133241089936 344.70330186321064,307.5282071324864 344.64144522739275,307.7531939365577 C 344.57958859157486,307.978180740629 344.5106784715308,308.201168575533 344.434816857339,308.4218274092405 C 344.3589552431472,308.642486242948 344.27617957948166,308.86070716005815 344.1866123780493,309.0761671837946 C 344.0970451766169,309.29162720753106 344.00073064705794,309.5042199885832 343.8978113392097,309.7136308800693 C 343.7948920313614,309.92304177155535 343.68541874535504,310.129167409967 343.56955350657967,310.3317027200847 C 343.4536882678043,310.5342380302024 343.3314882663969,310.7330830422487 343.203134363858,310.92794345665857 C 343.0747804613191,311.1228038710684 342.9403360120884,311.31358350633036 342.8,311.5"/></g></svg>