<svg width="20" height="20" viewBox="0 0 20 20" fill="none" xmlns="http://www.w3.org/2000/svg">
<g id="mateo-optical-size" transform="matrix(0.692763225 0 0 0.692763225 3.072367751 3.072367751)">
<path fill-rule="evenodd" clip-rule="evenodd" d="M8.939148856 2.244160818C9.575800642 2.899078792 9.575800642 3.958072948 8.939138561 4.612989772L5.333693879 8.32144001L18.6111 8.32144C19.517838757 8.32144 20.25 9.074546145 20.25 10C20.25 10.925527471 19.517864358 11.6786 18.6111 11.6786L5.333704824 11.678599986L8.939150417 15.387042424C9.575799861 16.041969728 9.575799861 17.100930272 8.939150417 17.755857576L8.939131147 17.755877398C8.298512066 18.414742519 7.256997075 18.414742519 6.616441664 17.755870003L0.227554169 11.184472579C-0.07845949 10.869726147 -0.25 10.443738102 -0.25 10C-0.25 9.5563409 -0.078484546 9.130443818 0.227551399 8.815570269L6.61644078 2.244150906C7.256998314 1.585288016 8.298510827 1.585288016 8.939148856 2.244160818Z" fill="black"/>
</g>
</svg>
