<svg width="20" height="20" viewBox="0 0 20 20" fill="none" xmlns="http://www.w3.org/2000/svg">
<path fill-rule="evenodd" clip-rule="evenodd" d="M10.7463 2.22222C6.55975 2.22222 3.16585 5.70446 3.16585 10C3.16585 14.2956 6.55975 17.7778 10.7463 17.7778C14.0453 17.7778 16.8546 15.6151 17.8957 12.5927C18.0951 12.0141 18.7138 11.7109 19.2776 11.9153C19.8415 12.1199 20.1372 12.7547 19.9378 13.3332C18.6004 17.2157 14.9916 20 10.7463 20C5.36358 20 1 15.5229 1 10C1 4.47716 5.36358 0 10.7463 0C12.6156 0 14.1741 0.469755 15.5634 1.34471C16.1704 1.72694 16.7358 2.18076 17.2745 2.69252V1.11111C17.2745 0.497467 17.7594 0 18.3575 0C18.9556 0 19.4404 0.497467 19.4404 1.11111V5.55556C19.4404 6.1692 18.9556 6.66667 18.3575 6.66667H14.0258C13.4277 6.66667 12.9428 6.1692 12.9428 5.55556C12.9428 4.94191 13.4277 4.44444 14.0258 4.44444H15.9289C15.4373 3.9633 14.944 3.56201 14.4305 3.23862C13.3939 2.5858 12.2297 2.22222 10.7463 2.22222Z" fill="black"/>
</svg>
