<svg width="20" height="20" viewBox="0 0 20 20" fill="none" xmlns="http://www.w3.org/2000/svg">
<path fill-rule="evenodd" clip-rule="evenodd" d="M8.75989 17.5816C8.21744 18.1395 7.33808 18.1395 6.79569 17.5816L0.4068 11.0102C0.146333 10.7423 0 10.3789 0 10C0 9.62116 0.146322 9.25784 0.4068 8.98984L6.79569 2.41842C7.33808 1.86053 8.21744 1.86053 8.75989 2.41842C9.30222 2.97631 9.30222 3.88084 8.75989 4.43872L4.74196 8.57144H18.6111C19.3782 8.57144 20 9.2111 20 10C20 10.789 19.3782 11.4286 18.6111 11.4286H4.74197L8.75989 15.5613C9.30222 16.1192 9.30222 17.0237 8.75989 17.5816Z" fill="black"/>
</svg>
