<svg width="20" height="20" viewBox="0 0 20 20" fill="none" xmlns="http://www.w3.org/2000/svg">
<g clip-path="url(#clip0_23_159)">
<path fill-rule="evenodd" clip-rule="evenodd" d="M10 0C4.47715 0 0 4.47715 0 10C0 15.5228 4.47715 20 10 20C15.5228 20 20 15.5228 20 10C20 4.47715 15.5228 0 10 0ZM8 9C8 8.5858 8.3358 8.25 8.75 8.25H10C10.4142 8.25 10.75 8.5858 10.75 9V14.25C10.75 14.6642 10.4142 15 10 15C9.5858 15 9.25 14.6642 9.25 14.25V9.75H8.75C8.3358 9.75 8 9.4142 8 9ZM10 5.25C9.5858 5.25 9.25 5.58579 9.25 6C9.25 6.41421 9.5858 6.75 10 6.75C10.4142 6.75 10.75 6.41421 10.75 6C10.75 5.58579 10.4142 5.25 10 5.25Z" fill="black"/>
</g>
<defs>
<clipPath id="clip0_23_159">
<rect width="20" height="20" fill="white"/>
</clipPath>
</defs>
</svg>
