<svg width="20" height="20" viewBox="0 0 20 20" fill="none" xmlns="http://www.w3.org/2000/svg">
<g clip-path="url(#clip0_2_118)">
<path fill-rule="evenodd" clip-rule="evenodd" d="M10 0C12.7611 0 15.2627 1.12016 17.0713 2.92871C18.8798 4.73726 20 7.23885 20 10C20 15.5228 15.5228 20 10 20C7.23885 20 4.73726 18.8798 2.92871 17.0713C1.12016 15.2627 0 12.7611 0 10C0 4.47715 4.47715 0 10 0ZM5.09473 16.3184C6.44997 17.3721 8.1507 18 10 18C14.4183 18 18 14.4183 18 10C18 8.1507 17.3721 6.44997 16.3184 5.09473L5.09473 16.3184ZM10 2C5.58172 2 2 5.58172 2 10C2 11.8488 2.6274 13.5492 3.68066 14.9043L14.9043 3.68066C13.5492 2.6274 11.8488 2 10 2Z" fill="black"/>
</g>
<defs>
<clipPath id="clip0_2_118">
<rect width="20" height="20" fill="white"/>
</clipPath>
</defs>
</svg>
