<svg width="20" height="20" viewBox="0 0 20 20" fill="none" xmlns="http://www.w3.org/2000/svg">
<g clip-path="url(#clip0_2_120)">
<path fill-rule="evenodd" clip-rule="evenodd" d="M10 0C15.5228 0 20 4.47715 20 10C20 15.5228 15.5228 20 10 20C4.47715 20 0 15.5228 0 10C0 4.47715 4.47715 0 10 0ZM10 4C9.5858 4 9.25 4.33579 9.25 4.75V9.25H5.75C5.33579 9.25 5 9.5858 5 10C5 10.4142 5.33579 10.75 5.75 10.75H10C10.4142 10.75 10.75 10.4142 10.75 10V4.75C10.75 4.33579 10.4142 4 10 4Z" fill="black"/>
</g>
<defs>
<clipPath id="clip0_2_120">
<rect width="20" height="20" fill="white"/>
</clipPath>
</defs>
</svg>
