<svg width="20" height="20" viewBox="0 0 20 20" fill="none" xmlns="http://www.w3.org/2000/svg">
<g clip-path="url(#clip0_161_3881)">
<path d="M14.2725 7.65746C13.6461 4.3217 10.4344 2.12483 7.09865 2.75105C3.76283 3.3774 1.56604 6.58985 2.19239 9.92567C2.81883 13.2614 6.0311 15.4575 9.36686 14.8311C12.7025 14.2047 14.8987 10.9932 14.2725 7.65746ZM16.2862 7.27935C16.6354 9.13931 16.3235 10.969 15.5205 12.5312L19.2328 15.0768C19.6997 15.3961 19.8193 16.0331 19.5 16.5C19.1807 16.9669 18.5437 17.0865 18.0768 16.7672L14.3655 14.2223C13.2007 15.5395 11.6069 16.4952 9.74497 16.8449C5.29727 17.68 1.01466 14.7513 0.179436 10.3036C-0.655694 5.85587 2.27293 1.57323 6.72069 0.738097C11.1684 -0.0969121 15.4511 2.83166 16.2862 7.27935Z" fill="black"/>
<path d="M10.0707 5.56183C9.48905 5.56183 9.01748 6.12061 9.01748 6.89618C9.01762 7.67158 9.48912 8.19489 10.0707 8.19489C10.6523 8.19489 11.1238 7.67158 11.1239 6.89618C11.1239 6.12061 10.6524 5.56183 10.0707 5.56183Z" fill="black"/>
<path d="M6.20888 5.56183C5.62719 5.56183 5.15565 6.12061 5.15565 6.89618C5.15576 7.67158 5.62726 8.19489 6.20888 8.19489C6.79047 8.19489 7.26196 7.67158 7.2621 6.89618C7.2621 6.12061 6.79054 5.56183 6.20888 5.56183Z" fill="black"/>
<path d="M8.1412 10.0202C7.15383 10.0168 6.1674 10.4168 5.47656 11.1015C5.39936 11.1773 5.32661 11.2556 5.25645 11.3374C5.16978 11.4407 5.12001 11.5728 5.12342 11.7091C5.12684 11.8454 5.18222 11.9744 5.27839 12.0684C5.37455 12.1623 5.50485 12.2148 5.64113 12.2151C5.77729 12.2153 5.90816 12.1627 6.00934 12.0738C6.06999 12.0218 6.13175 11.9727 6.19516 11.9258C6.76456 11.5031 7.45239 11.2847 8.14183 11.2846C8.83141 11.2837 9.51889 11.5011 10.0865 11.9244C10.1497 11.9715 10.2112 12.0203 10.2716 12.0725C10.3726 12.1618 10.5035 12.215 10.6398 12.2151C10.7761 12.2152 10.9069 12.1634 11.0032 12.0698C11.0996 11.976 11.1551 11.8466 11.1589 11.7104C11.1627 11.5743 11.1135 11.4423 11.0272 11.3388C10.9572 11.2567 10.8843 11.1783 10.8071 11.1022C10.117 10.4147 9.12835 10.0152 8.1412 10.0202Z" fill="black"/>
</g>
<defs>
<clipPath id="clip0_161_3881">
<rect width="20" height="20" fill="white"/>
</clipPath>
</defs>
</svg>
