<svg width="20" height="20" viewBox="0 0 20 20" fill="none" xmlns="http://www.w3.org/2000/svg">
<path fill-rule="evenodd" clip-rule="evenodd" d="M2 8.14432C2 3.64633 5.64633 0 10.1443 0C14.6423 0 18.2886 3.64633 18.2886 8.14432C18.2886 10.6845 17.1569 13.0485 15.8174 14.9669C14.472 16.894 12.8659 18.4442 11.8024 19.373C10.8452 20.209 9.4434 20.209 8.48624 19.373C7.42265 18.4442 5.81663 16.894 4.47119 14.9669C3.13176 13.0485 2 10.6845 2 8.14432ZM6.96294 8.14432C6.96294 6.38729 8.38728 4.96294 10.1443 4.96294C11.9014 4.96294 13.3257 6.38729 13.3257 8.14432C13.3257 9.90135 11.9014 11.3257 10.1443 11.3257C8.38728 11.3257 6.96294 9.90135 6.96294 8.14432Z" fill="black"/>
</svg>
