<svg width="20" height="20" viewBox="0 0 20 20" fill="none" xmlns="http://www.w3.org/2000/svg">
<g clip-path="url(#clip0_2_128)">
<path d="M4.11692 0C1.89042 0 -0.144179 1.83333 0.259921 4.24086C0.632999 6.46354 1.40083 8.61755 2.53768 10.5771C4.1918 13.4281 6.56994 15.8062 9.42101 17.4603C11.3865 18.6007 13.511 19.341 15.7075 19.7132C18.1293 20.1237 19.998 18.082 19.998 15.83C19.998 13.9823 18.781 12.3519 17.0071 11.8301L15.9357 11.515C14.8643 11.1999 13.7066 11.5077 12.9332 12.3133C12.515 12.7489 11.9187 12.8161 11.5061 12.5493C9.88345 11.5 8.49812 10.1146 7.44872 8.49189C7.18194 8.07944 7.24917 7.48301 7.68475 7.06484C8.49034 6.29146 8.79823 5.13376 8.48312 4.06239L8.09045 2.72761C7.61486 1.11049 6.13073 0 4.44512 0H4.11692Z" fill="black"/>
</g>
<defs>
<clipPath id="clip0_2_128">
<rect width="20" height="20" fill="white"/>
</clipPath>
</defs>
</svg>
