<svg width="20" height="20" viewBox="0 0 20 20" fill="none" xmlns="http://www.w3.org/2000/svg">
<path d="M0.401348 8.28856C-0.0658055 7.92161 -0.14435 7.24734 0.267452 6.82114C5.09949 1.82011 13.3513 1.64115 18.349 6.7981C18.7614 7.2237 18.6859 7.89851 18.2203 8.26732L17.8312 8.57551C17.3655 8.94432 16.6873 8.86682 16.2652 8.45047C12.3752 4.61364 6.13294 4.7343 2.35825 8.46538C1.93658 8.88218 1.25891 8.96219 0.791752 8.59523L0.401348 8.28856Z" fill="black"/>
<path d="M0.401348 8.28856C-0.0658055 7.92161 -0.14435 7.24734 0.267452 6.82114C5.09949 1.82011 13.3513 1.64115 18.349 6.7981C18.7614 7.2237 18.6859 7.89851 18.2203 8.26732L17.8312 8.57551C17.3655 8.94432 16.6873 8.86682 16.2652 8.45047C12.3752 4.61364 6.13294 4.7343 2.35825 8.46538C1.93658 8.88218 1.25891 8.96219 0.791752 8.59523L0.401348 8.28856Z" fill="black"/>
<path fill-rule="evenodd" clip-rule="evenodd" d="M17.0953 10.6603C16.418 9.58942 14.8324 9.58942 14.155 10.6603L11.514 14.836C10.7972 15.9693 11.6264 17.4355 12.9842 17.4355H18.2662C19.6239 17.4355 20.4531 15.9693 19.7364 14.836L17.0953 10.6603ZM15.625 12.3315C15.386 12.3315 15.1923 12.5219 15.1923 12.7568V14.0328C15.1923 14.2677 15.386 14.4581 15.625 14.4581C15.8641 14.4581 16.0578 14.2677 16.0578 14.0328V12.7568C16.0578 12.5219 15.8641 12.3315 15.625 12.3315ZM16.166 15.3088C16.166 15.0152 15.9239 14.7771 15.625 14.7771C15.3263 14.7771 15.0841 15.0152 15.0841 15.3088C15.0841 15.6025 15.3263 15.8404 15.625 15.8404C15.9239 15.8404 16.166 15.6025 16.166 15.3088Z" fill="black"/>
<path fill-rule="evenodd" clip-rule="evenodd" d="M17.0953 10.6603C16.418 9.58942 14.8324 9.58942 14.155 10.6603L11.514 14.836C10.7972 15.9693 11.6264 17.4355 12.9842 17.4355H18.2662C19.6239 17.4355 20.4531 15.9693 19.7364 14.836L17.0953 10.6603ZM15.625 12.3315C15.386 12.3315 15.1923 12.5219 15.1923 12.7568V14.0328C15.1923 14.2677 15.386 14.4581 15.625 14.4581C15.8641 14.4581 16.0578 14.2677 16.0578 14.0328V12.7568C16.0578 12.5219 15.8641 12.3315 15.625 12.3315ZM16.166 15.3088C16.166 15.0152 15.9239 14.7771 15.625 14.7771C15.3263 14.7771 15.0841 15.0152 15.0841 15.3088C15.0841 15.6025 15.3263 15.8404 15.625 15.8404C15.9239 15.8404 16.166 15.6025 16.166 15.3088Z" fill="black"/>
<path d="M9.23713 12.84C9.81525 12.8767 10.2721 12.9639 10.6587 13.1174C10.9444 13.2308 11.0183 13.5743 10.8558 13.8314L10.5821 14.2644C10.2759 14.7485 10.1425 15.2696 10.1519 15.7756C10.1553 15.9577 10.0912 16.1382 9.95389 16.2606L9.89762 16.3109C9.52269 16.6443 8.95111 16.6421 8.57879 16.3059L7.09479 14.9655C6.698 14.6069 6.66095 13.9859 7.07596 13.6415C7.79882 13.0419 8.42464 12.8484 9.23567 12.84H9.23713Z" fill="black"/>
<path d="M9.23713 12.84C9.77898 12.8745 10.2143 12.9531 10.585 13.0892C10.9149 13.2103 10.9999 13.6035 10.814 13.8975L10.5821 14.2644C10.2843 14.7352 10.15 15.2412 10.1515 15.734C10.1521 15.9422 10.0795 16.1485 9.92262 16.2886L9.89762 16.3109C9.52269 16.6443 8.95111 16.6421 8.57879 16.3059L7.09479 14.9655C6.698 14.6069 6.66095 13.9859 7.07596 13.6415C7.79882 13.0419 8.42464 12.8484 9.23567 12.84H9.23713Z" fill="black"/>
<path d="M9.45181 8.06744C10.8007 8.06958 11.9952 8.52629 13.1114 9.27675C13.4068 9.47535 13.4242 9.88712 13.2353 10.1858L12.9979 10.561C12.5671 11.2423 11.6354 11.356 10.8957 11.0172C10.4293 10.8035 9.95275 10.6877 9.44745 10.6869C8.19595 10.685 7.11572 10.9567 5.81892 12.0145C5.35872 12.3898 4.6782 12.4009 4.25309 11.9874L3.89747 11.6422C3.47258 11.2289 3.46543 10.5501 3.91703 10.1652C5.66466 8.67653 7.3731 8.06421 9.45181 8.06744Z" fill="black"/>
</svg>
