<svg width="20" height="20" viewBox="0 0 20 20" fill="none" xmlns="http://www.w3.org/2000/svg">
<g id="mateo-optical-size" transform="matrix(0.793124396 0 0 0.793124396 2.068756038 2.068756038)">
<path d="M10.0108 0.00896555C10.5938 -0.0635347 11.2421 0.311643 11.4824 0.845793C11.6542 1.22747 11.6202 1.64915 11.6205 2.05807L11.6191 3.45066L11.6198 7.42366L11.6196 8.66928C11.6196 8.86997 11.6173 9.0768 11.623 9.27762C11.6245 9.33058 11.6604 9.39736 11.6957 9.43713C11.7575 9.50561 11.8439 9.5467 11.936 9.55151C12.0251 9.55559 12.1118 9.52208 12.1751 9.45899C12.3232 9.309 12.2735 8.75303 12.2724 8.53741L12.2715 7.3266L12.2716 3.17836C12.273 2.68973 12.3344 2.32256 12.7036 1.96031C12.9666 1.7012 13.3226 1.55825 13.6918 1.56339C14.0932 1.57091 14.4392 1.73348 14.7166 2.02059C15.1293 2.44794 15.0872 2.94606 15.087 3.49317L15.0867 4.62468C15.0818 5.69301 15.0987 6.77554 15.0835 7.84132C14.8083 8.08237 14.5364 8.31217 14.2878 8.58227C13.7447 9.16807 13.3924 9.90512 13.2776 10.6955C13.2473 10.9071 13.2305 11.1144 13.2404 11.3279C13.2458 11.445 13.2378 11.6389 13.138 11.7205C12.9665 11.8606 12.7287 11.9338 12.5393 12.0522C11.4362 12.6985 10.4717 13.7855 10.3044 15.091C10.2847 15.2453 10.2776 15.4116 10.3837 15.5406C10.4472 15.6176 10.5402 15.6643 10.6398 15.6697C10.7794 15.6763 10.911 15.6043 10.9809 15.4834C11.0504 15.361 11.0619 15.0447 11.1009 14.8913C11.3632 13.8489 12.1933 13.0104 13.1317 12.5338C13.5888 12.3017 14.0161 12.2043 13.9865 11.5843C13.979 11.4242 13.9899 11.1797 14.0001 11.0164C14.0649 10.0871 14.4981 9.22239 15.2036 8.61413C15.6819 8.19489 16.385 7.82856 17.032 7.83828C17.3802 7.85297 17.7452 8.10865 17.7714 8.47398C17.7979 8.84323 17.7827 9.22756 17.7817 9.5958L17.7712 10.7806C17.7682 11.1937 17.7737 11.5661 17.7316 11.978C17.4893 14.3434 16.6123 16.6595 14.733 18.1995C13.5506 19.1856 12.1015 19.7971 10.5702 19.9564C6.24438 20.399 2.62713 17.4286 2.24436 13.0761C2.19958 12.5668 2.22043 12.0259 2.22043 11.512L2.21974 8.84437L2.22101 6.6459C2.22095 6.25698 2.19271 5.80274 2.24292 5.42093C2.44004 3.93398 4.4056 3.7451 4.77906 5.24255C4.86789 5.59879 4.82905 6.12004 4.82854 6.49729L4.82837 8.91643L4.8266 9.62844C4.8251 9.86432 4.74772 10.3689 5.13212 10.3247C5.3001 10.3055 5.36887 10.1646 5.37094 10.0081C5.3735 9.81522 5.37031 9.61926 5.36906 9.42489L5.36807 8.38208L5.36805 4.6521L5.36795 3.51869C5.36807 3.28733 5.35816 2.96902 5.39279 2.74862C5.42909 2.51145 5.52758 2.28812 5.67825 2.10139C6.36796 1.23491 7.76812 1.55407 8.00754 2.61054C8.09314 2.98825 8.05302 3.76265 8.05307 4.17582L8.05343 7.52296L8.05174 8.60708C8.0516 8.79993 8.04626 9.00912 8.05944 9.20054C8.06647 9.30299 8.08155 9.38031 8.16552 9.44427C8.23479 9.49702 8.32238 9.51974 8.40855 9.50707C8.6362 9.4756 8.67427 9.30462 8.67467 9.1126C8.67595 8.48609 8.67513 7.85884 8.67499 7.23242L8.6748 3.52851L8.67449 2.14487C8.67408 1.96781 8.67917 1.77973 8.67385 1.60378C8.64882 0.774851 9.1594 0.110722 10.0108 0.00896555Z" fill="black"/>
</g>
</svg>
